Coordinates
version=1
nRows=4
nColumns=63
inDegrees=yes

Units are S.I. units (second, meters, Newtons, ...)
If the header above contains a line with 'inDegrees', this indicates whether rotational values are in degrees (yes) or radians (no).

endheader
time	pelvis_tilt	pelvis_list	pelvis_rotation	pelvis_tx	pelvis_ty	pelvis_tz	hip_flexion_r	hip_adduction_r	hip_rotation_r	knee_angle_r	knee_angle_r_beta	ankle_angle_r	subtalar_angle_r	mtp_angle_r	hip_flexion_l	hip_adduction_l	hip_rotation_l	knee_angle_l	knee_angle_l_beta	ankle_angle_l	subtalar_angle_l	mtp_angle_l	L5_S1_Flex_Ext	L5_S1_Lat_Bending	L5_S1_axial_rotation	L4_L5_Flex_Ext	L4_L5_Lat_Bending	L4_L5_axial_rotation	L3_L4_Flex_Ext	L3_L4_Lat_Bending	L3_L4_axial_rotation	L2_L3_Flex_Ext	L2_L3_Lat_Bending	L2_L3_axial_rotation	L1_L2_Flex_Ext	L1_L2_Lat_Bending	L1_L2_axial_rotation	L1_T12_Flex_Ext	L1_T12_Lat_Bending	L1_T12_axial_rotation	Abs_r3	Abs_r2	Abs_r1	Abs_t1	Abs_t2	neck_flexion	neck_bending	neck_rotation	arm_flex_r	arm_add_r	arm_rot_r	elbow_flex_r	pro_sup_r	wrist_flex_r	wrist_dev_r	arm_flex_l	arm_add_l	arm_rot_l	elbow_flex_l	pro_sup_l	wrist_flex_l	wrist_dev_l
      3.75000000	    -39.90080283	      0.38299777	     -0.69111106	     -0.15556135	      1.00647127	      0.03881564	    100.01547619	     -3.44061054	      4.18458291	    108.15994778	      1.88774721	     -3.71404581	    -16.31638101	      0.00000000	     91.80757308	     -6.12800827	     -3.32728411	     57.76173711	      1.00813249	     -1.94990652	    -15.11591629	      0.00000000	     -0.05530636	     -0.04866265	      0.46257114	     -0.10270945	     -0.06472132	      0.49148184	     -0.09086282	     -0.11831836	      0.49148184	     -0.06320964	     -0.11831836	      0.40474975	     -0.05135749	     -0.09923287	      0.37583905	     -0.03160206	     -0.07537844	      0.34692835	     -0.39504782	     -0.55048161	      2.57268191	      0.00000000	      0.00000000	      0.00000000	      0.00000000	      0.00000000	     70.41818205	    -12.96800167	     29.25170236	     35.54697946	     56.48835148	      0.00000000	      4.99999951	     68.73643723	     -6.78979934	     21.70592154	     30.88853895	     63.12470373	      0.00000000	      4.99999951
      3.75800000	    -39.70479313	     -0.24442722	     -0.44376067	     -0.15425634	      1.00575611	      0.03821463	    101.27230957	     -3.91410981	      3.60936069	    110.16961141	      1.92282245	     -3.17577246	    -16.22174018	      0.00000000	     90.15531815	     -5.85108352	     -2.96817697	     56.00134848	      0.97740792	     -2.21923003	    -15.08646275	      0.00000000	     -0.05576632	      0.04217361	      0.41044251	     -0.10356362	      0.05609090	      0.43609517	     -0.09161848	      0.10254091	      0.43609517	     -0.06373532	      0.10254091	      0.35913720	     -0.05178460	      0.08600042	      0.33348454	     -0.03186487	      0.06532692	      0.30783188	     -0.39833322	      0.47707627	      2.28275810	      0.00000000	      0.00000000	      0.00000000	      0.00000000	      0.00000000	     70.67063180	    -13.12138943	     30.46527732	     35.36499939	     56.71337245	      0.00000000	      4.99999952	     68.50640106	     -6.59826963	     21.19306140	     30.52319790	     63.09652186	      0.00000000	      4.99999952
      3.76700000	    -39.55652756	     -0.82365143	     -0.77320863	     -0.15305186	      1.00523034	      0.03867810	    102.55013542	     -3.71073427	      2.98582272	    111.84305582	      1.95202957	     -2.73501895	    -16.09576802	      0.00000000	     88.59997131	     -6.28320917	     -2.76197131	     54.46270986	      0.95055361	     -2.62067614	    -14.73445369	      0.00000000	     -0.05471953	      0.12250764	      0.47435765	     -0.10161964	      0.16293517	      0.50400501	     -0.08989871	      0.29786508	      0.50400501	     -0.06253895	      0.29786508	      0.41506295	     -0.05081255	      0.24981759	      0.38541559	     -0.03126674	      0.18976434	      0.35576824	     -0.39085612	      1.38583096	      2.63823497	      0.00000000	      0.00000000	      0.00000000	      0.00000000	      0.00000000	     70.73531613	    -13.20001837	     30.83620852	     35.26315847	     56.76469323	      0.00000000	      4.99999953	     68.29890027	     -6.46418557	     21.06156156	     30.38462841	     63.06161319	      0.00000000	      4.99999953
      3.77500000	    -39.41817100	     -1.42783095	     -0.98276461	     -0.15185739	      1.00472525	      0.03904191	    103.83190258	     -3.59860282	      2.35155416	    113.39965711	      1.97919739	     -2.23518488	    -15.97268000	      0.00000000	     87.07060202	     -6.63592897	     -2.57230505	     53.00632042	      0.92513482	     -2.87632365	    -14.41711574	      0.00000000	     -0.05368168	      0.20426674	      0.51471550	     -0.09969225	      0.27167477	      0.54688522	     -0.08819364	      0.49665416	      0.54688522	     -0.06135279	      0.49665416	      0.45037606	     -0.04984881	      0.41654074	      0.41820634	     -0.03067371	      0.31640918	      0.38603662	     -0.38344289	      2.31070625	      2.86269319	      0.00000000	      0.00000000	      0.00000000	      0.00000000	      0.00000000	     70.82537589	    -13.29263049	     31.22591510	     35.13625019	     56.81899951	      0.00000000	      4.99999954	     68.10276420	     -6.31485463	     20.91756432	     30.15449189	     63.02463168	      0.00000000	      4.99999954
